<svg id="visual" viewBox="0 0 1920 1080" width="1920" height="1080" xmlns="http://www.w3.org/2000/svg" xmlns:xlink="http://www.w3.org/1999/xlink" version="1.1"><rect x="0" y="0" width="1920" height="1080" fill="#001220"></rect><path d="M0 457L22.8 504.5C45.7 552 91.3 647 137 661.7C182.7 676.3 228.3 610.7 274 603.5C319.7 596.3 365.3 647.7 411.2 664.2C457 680.7 503 662.3 548.8 671.3C594.7 680.3 640.3 716.7 686 717.7C731.7 718.7 777.3 684.3 823 658.7C868.7 633 914.3 616 960 615.7C1005.7 615.3 1051.3 631.7 1097 614C1142.7 596.3 1188.3 544.7 1234 549C1279.7 553.3 1325.3 613.7 1371.2 619.3C1417 625 1463 576 1508.8 557.5C1554.7 539 1600.3 551 1646 576.8C1691.7 602.7 1737.3 642.3 1783 669.3C1828.7 696.3 1874.3 710.7 1897.2 717.8L1920 725L1920 1081L1897.2 1081C1874.3 1081 1828.7 1081 1783 1081C1737.3 1081 1691.7 1081 1646 1081C1600.3 1081 1554.7 1081 1508.8 1081C1463 1081 1417 1081 1371.2 1081C1325.3 1081 1279.7 1081 1234 1081C1188.3 1081 1142.7 1081 1097 1081C1051.3 1081 1005.7 1081 960 1081C914.3 1081 868.7 1081 823 1081C777.3 1081 731.7 1081 686 1081C640.3 1081 594.7 1081 548.8 1081C503 1081 457 1081 411.2 1081C365.3 1081 319.7 1081 274 1081C228.3 1081 182.7 1081 137 1081C91.3 1081 45.7 1081 22.8 1081L0 1081Z" fill="#fa7268"></path><path d="M0 528L22.8 569C45.7 610 91.3 692 137 720.7C182.7 749.3 228.3 724.7 274 688.7C319.7 652.7 365.3 605.3 411.2 609.5C457 613.7 503 669.3 548.8 709.3C594.7 749.3 640.3 773.7 686 787.8C731.7 802 777.3 806 823 779.2C868.7 752.3 914.3 694.7 960 658.5C1005.7 622.3 1051.3 607.7 1097 631.2C1142.7 654.7 1188.3 716.3 1234 716.8C1279.7 717.3 1325.3 656.7 1371.2 648.8C1417 641 1463 686 1508.8 675.5C1554.7 665 1600.3 599 1646 587.3C1691.7 575.7 1737.3 618.3 1783 638.5C1828.7 658.7 1874.3 656.3 1897.2 655.2L1920 654L1920 1081L1897.2 1081C1874.3 1081 1828.7 1081 1783 1081C1737.3 1081 1691.7 1081 1646 1081C1600.3 1081 1554.7 1081 1508.8 1081C1463 1081 1417 1081 1371.2 1081C1325.3 1081 1279.7 1081 1234 1081C1188.3 1081 1142.7 1081 1097 1081C1051.3 1081 1005.7 1081 960 1081C914.3 1081 868.7 1081 823 1081C777.3 1081 731.7 1081 686 1081C640.3 1081 594.7 1081 548.8 1081C503 1081 457 1081 411.2 1081C365.3 1081 319.7 1081 274 1081C228.3 1081 182.7 1081 137 1081C91.3 1081 45.7 1081 22.8 1081L0 1081Z" fill="#ea5767"></path><path d="M0 586L22.8 631.5C45.7 677 91.3 768 137 810.3C182.7 852.7 228.3 846.3 274 840.5C319.7 834.7 365.3 829.3 411.2 811.2C457 793 503 762 548.8 735.5C594.7 709 640.3 687 686 677.7C731.7 668.3 777.3 671.7 823 687.8C868.7 704 914.3 733 960 743.5C1005.7 754 1051.3 746 1097 749C1142.7 752 1188.3 766 1234 742.7C1279.7 719.3 1325.3 658.7 1371.2 658.3C1417 658 1463 718 1508.8 747.8C1554.7 777.7 1600.3 777.3 1646 778.8C1691.7 780.3 1737.3 783.7 1783 766.3C1828.7 749 1874.3 711 1897.2 692L1920 673L1920 1081L1897.2 1081C1874.3 1081 1828.7 1081 1783 1081C1737.3 1081 1691.7 1081 1646 1081C1600.3 1081 1554.7 1081 1508.8 1081C1463 1081 1417 1081 1371.2 1081C1325.3 1081 1279.7 1081 1234 1081C1188.3 1081 1142.7 1081 1097 1081C1051.3 1081 1005.7 1081 960 1081C914.3 1081 868.7 1081 823 1081C777.3 1081 731.7 1081 686 1081C640.3 1081 594.7 1081 548.8 1081C503 1081 457 1081 411.2 1081C365.3 1081 319.7 1081 274 1081C228.3 1081 182.7 1081 137 1081C91.3 1081 45.7 1081 22.8 1081L0 1081Z" fill="#d73b67"></path><path d="M0 725L22.8 741.7C45.7 758.3 91.3 791.7 137 819.5C182.7 847.3 228.3 869.7 274 851.8C319.7 834 365.3 776 411.2 760.8C457 745.7 503 773.3 548.8 769.7C594.7 766 640.3 731 686 734.3C731.7 737.7 777.3 779.3 823 807C868.7 834.7 914.3 848.3 960 859.5C1005.7 870.7 1051.3 879.3 1097 864.8C1142.7 850.3 1188.3 812.7 1234 809.5C1279.7 806.3 1325.3 837.7 1371.2 822.2C1417 806.7 1463 744.3 1508.8 731.7C1554.7 719 1600.3 756 1646 765.3C1691.7 774.7 1737.3 756.3 1783 746.5C1828.7 736.7 1874.3 735.3 1897.2 734.7L1920 734L1920 1081L1897.2 1081C1874.3 1081 1828.7 1081 1783 1081C1737.3 1081 1691.7 1081 1646 1081C1600.3 1081 1554.7 1081 1508.8 1081C1463 1081 1417 1081 1371.2 1081C1325.3 1081 1279.7 1081 1234 1081C1188.3 1081 1142.7 1081 1097 1081C1051.3 1081 1005.7 1081 960 1081C914.3 1081 868.7 1081 823 1081C777.3 1081 731.7 1081 686 1081C640.3 1081 594.7 1081 548.8 1081C503 1081 457 1081 411.2 1081C365.3 1081 319.7 1081 274 1081C228.3 1081 182.7 1081 137 1081C91.3 1081 45.7 1081 22.8 1081L0 1081Z" fill="#c62368"></path><path d="M0 917L22.8 908C45.7 899 91.3 881 137 883.5C182.7 886 228.3 909 274 892.3C319.7 875.7 365.3 819.3 411.2 793C457 766.7 503 770.3 548.8 770.2C594.7 770 640.3 766 686 776.5C731.7 787 777.3 812 823 831.3C868.7 850.7 914.3 864.3 960 876.3C1005.7 888.3 1051.3 898.7 1097 907.2C1142.7 915.7 1188.3 922.3 1234 909.2C1279.7 896 1325.3 863 1371.2 851.3C1417 839.7 1463 849.3 1508.8 855.5C1554.7 861.7 1600.3 864.3 1646 845.2C1691.7 826 1737.3 785 1783 769.2C1828.7 753.3 1874.3 762.7 1897.2 767.3L1920 772L1920 1081L1897.2 1081C1874.3 1081 1828.7 1081 1783 1081C1737.3 1081 1691.7 1081 1646 1081C1600.3 1081 1554.7 1081 1508.8 1081C1463 1081 1417 1081 1371.2 1081C1325.3 1081 1279.7 1081 1234 1081C1188.3 1081 1142.7 1081 1097 1081C1051.3 1081 1005.7 1081 960 1081C914.3 1081 868.7 1081 823 1081C777.3 1081 731.7 1081 686 1081C640.3 1081 594.7 1081 548.8 1081C503 1081 457 1081 411.2 1081C365.3 1081 319.7 1081 274 1081C228.3 1081 182.7 1081 137 1081C91.3 1081 45.7 1081 22.8 1081L0 1081Z" fill="#c62368"></path><path d="M0 810L22.8 835.3C45.7 860.7 91.3 911.3 137 921.2C182.7 931 228.3 900 274 893.8C319.7 887.7 365.3 906.3 411.2 907C457 907.7 503 890.3 548.8 878.3C594.7 866.3 640.3 859.7 686 862C731.7 864.3 777.3 875.7 823 889C868.7 902.3 914.3 917.7 960 904C1005.7 890.3 1051.3 847.7 1097 832.7C1142.7 817.7 1188.3 830.3 1234 843.2C1279.7 856 1325.3 869 1371.2 888.2C1417 907.3 1463 932.7 1508.8 941.5C1554.7 950.3 1600.3 942.7 1646 931.5C1691.7 920.3 1737.3 905.7 1783 898.5C1828.7 891.3 1874.3 891.7 1897.2 891.8L1920 892L1920 1081L1897.2 1081C1874.3 1081 1828.7 1081 1783 1081C1737.3 1081 1691.7 1081 1646 1081C1600.3 1081 1554.7 1081 1508.8 1081C1463 1081 1417 1081 1371.2 1081C1325.3 1081 1279.7 1081 1234 1081C1188.3 1081 1142.7 1081 1097 1081C1051.3 1081 1005.7 1081 960 1081C914.3 1081 868.7 1081 823 1081C777.3 1081 731.7 1081 686 1081C640.3 1081 594.7 1081 548.8 1081C503 1081 457 1081 411.2 1081C365.3 1081 319.7 1081 274 1081C228.3 1081 182.7 1081 137 1081C91.3 1081 45.7 1081 22.8 1081L0 1081Z" fill="#d73b67"></path><path d="M0 950L22.8 948.2C45.7 946.3 91.3 942.7 137 932.8C182.7 923 228.3 907 274 903.7C319.7 900.3 365.3 909.7 411.2 927.7C457 945.7 503 972.3 548.8 973C594.7 973.7 640.3 948.3 686 949.7C731.7 951 777.3 979 823 982.8C868.7 986.7 914.3 966.3 960 962.3C1005.7 958.3 1051.3 970.7 1097 971.5C1142.7 972.3 1188.3 961.7 1234 952.7C1279.7 943.7 1325.3 936.3 1371.2 943.2C1417 950 1463 971 1508.8 963C1554.7 955 1600.3 918 1646 914.7C1691.7 911.3 1737.3 941.7 1783 940.3C1828.7 939 1874.3 906 1897.2 889.5L1920 873L1920 1081L1897.2 1081C1874.3 1081 1828.7 1081 1783 1081C1737.3 1081 1691.7 1081 1646 1081C1600.3 1081 1554.7 1081 1508.8 1081C1463 1081 1417 1081 1371.2 1081C1325.3 1081 1279.7 1081 1234 1081C1188.3 1081 1142.7 1081 1097 1081C1051.3 1081 1005.7 1081 960 1081C914.3 1081 868.7 1081 823 1081C777.3 1081 731.7 1081 686 1081C640.3 1081 594.7 1081 548.8 1081C503 1081 457 1081 411.2 1081C365.3 1081 319.7 1081 274 1081C228.3 1081 182.7 1081 137 1081C91.3 1081 45.7 1081 22.8 1081L0 1081Z" fill="#ea5767"></path><path d="M0 975L22.8 984.5C45.7 994 91.3 1013 137 1017.7C182.7 1022.3 228.3 1012.7 274 1002.7C319.7 992.7 365.3 982.3 411.2 988.8C457 995.3 503 1018.7 548.8 1018.3C594.7 1018 640.3 994 686 986.8C731.7 979.7 777.3 989.3 823 987C868.7 984.7 914.3 970.3 960 974.2C1005.7 978 1051.3 1000 1097 1005.7C1142.7 1011.3 1188.3 1000.7 1234 991.7C1279.7 982.7 1325.3 975.3 1371.2 971.3C1417 967.3 1463 966.7 1508.8 973.8C1554.7 981 1600.3 996 1646 1007.8C1691.7 1019.7 1737.3 1028.3 1783 1025.7C1828.7 1023 1874.3 1009 1897.2 1002L1920 995L1920 1081L1897.2 1081C1874.3 1081 1828.7 1081 1783 1081C1737.3 1081 1691.7 1081 1646 1081C1600.3 1081 1554.7 1081 1508.8 1081C1463 1081 1417 1081 1371.2 1081C1325.3 1081 1279.7 1081 1234 1081C1188.3 1081 1142.7 1081 1097 1081C1051.3 1081 1005.7 1081 960 1081C914.3 1081 868.7 1081 823 1081C777.3 1081 731.7 1081 686 1081C640.3 1081 594.7 1081 548.8 1081C503 1081 457 1081 411.2 1081C365.3 1081 319.7 1081 274 1081C228.3 1081 182.7 1081 137 1081C91.3 1081 45.7 1081 22.8 1081L0 1081Z" fill="#fa7268"></path></svg>