<svg id="visual" viewBox="0 0 900 600" width="900" height="600" xmlns="http://www.w3.org/2000/svg" xmlns:xlink="http://www.w3.org/1999/xlink" version="1.1"><path d="M0 61L129 55L257 79L386 73L514 55L643 79L771 79L900 55L900 0L771 0L643 0L514 0L386 0L257 0L129 0L0 0Z" fill="#f9dfe4"></path><path d="M0 109L129 91L257 127L386 109L514 91L643 127L771 115L900 91L900 53L771 77L643 77L514 53L386 71L257 77L129 53L0 59Z" fill="#e6cbd9"></path><path d="M0 145L129 145L257 175L386 145L514 133L643 169L771 163L900 139L900 89L771 113L643 125L514 89L386 107L257 125L129 89L0 107Z" fill="#cebad1"></path><path d="M0 289L129 265L257 325L386 289L514 259L643 331L771 301L900 271L900 137L771 161L643 167L514 131L386 143L257 173L129 143L0 143Z" fill="#b1aac9"></path><path d="M0 331L129 325L257 367L386 343L514 325L643 373L771 349L900 325L900 269L771 299L643 329L514 257L386 287L257 323L129 263L0 287Z" fill="#8f9cbe"></path><path d="M0 433L129 409L257 445L386 439L514 421L643 439L771 433L900 397L900 323L771 347L643 371L514 323L386 341L257 365L129 323L0 329Z" fill="#698fb0"></path><path d="M0 559L129 571L257 565L386 559L514 559L643 559L771 559L900 559L900 395L771 431L643 437L514 419L386 437L257 443L129 407L0 431Z" fill="#3e829c"></path><path d="M0 601L129 601L257 601L386 601L514 601L643 601L771 601L900 601L900 557L771 557L643 557L514 557L386 557L257 563L129 569L0 557Z" fill="#017482"></path></svg>